# xmcd
#
# Track frame offsets: 
#        150
#        25697
#        42012
#        72715
#        85785
#        100710
#        124315
#        143895
#        163457
#        179647
#        194550
#        215667
#        235732
#        252920
#
# Disc length: 3610 seconds
#
# Revision: 6
# Processed by: cddbd v1.5.2PL0 Copyright (c) Steve Scherf et al.
# Submitted via: ExactAudioCopyFreeDBPlugin 1.0
#
DISCID=d10e180e
DTITLE=HANS THEESSINK - Lifeline
DYEAR=1998
DGENRE=Blues
TTITLE0=Soul On Fire
TTITLE1=Soul Of A Man
TTITLE2=Missing You
TTITLE3=Lifeline
TTITLE4=Automobile
TTITLE5=Ready For The Ride
TTITLE6=Six Strings Down
TTITLE7=Love Sweet Love
TTITLE8=Bloodsucker Blues
TTITLE9=Lovin' Man
TTITLE10=Mandolin Man
TTITLE11=Death Don't Have No Mercy
TTITLE12=Going Home
TTITLE13=Blue Seagull  [Instrumental]
EXTD=Featuring :\nThe Holmes Brothers\nCharles Brown\nLinda Tillery and 
EXTD=the Cultural Heritage Choir\nPee Wee Ellis\nInsignizi Emnyama\nJo
EXTD=n Sass
EXTT0=
EXTT1=
EXTT2=
EXTT3=
EXTT4=
EXTT5=
EXTT6=
EXTT7=
EXTT8=
EXTT9=
EXTT10=
EXTT11=
EXTT12=
EXTT13=
PLAYORDER=
